<?xml version="1.0" encoding="utf-8"?>
<!-- Generator: Adobe Illustrator 19.1.0, SVG Export Plug-In . SVG Version: 6.00 Build 0)  -->
<svg version="1.1" id="Layer_1" xmlns="http://www.w3.org/2000/svg" xmlns:xlink="http://www.w3.org/1999/xlink" x="0px" y="0px"
	 viewBox="0 0 72 72" style="enable-background:new 0 0 72 72;" xml:space="preserve">
<style type="text/css">
	.st0{fill:#7A7676;}
	.st1{fill:#FFFFFF;}
</style>
<rect x="-0.1" class="st0" width="72.1" height="72"/>
<g id="MUODtZ.tif">
	<g>
		<path class="st1" d="M12.1,54c0-12,0-24,0-36c15.9,0,31.8,0,47.6,0c0,12,0,24,0,36C43.9,54,28,54,12.1,54z M54.4,21.4L54.4,21.4
			c-0.1,0-0.1,0-0.1,0c-12.1,0-24.2,0-36.4,0l0,0l0,0c0.1,0.1,0.1,0.1,0.2,0.2c3.2,3.2,6.4,6.5,9.5,9.6c2.2,2.4,4.6,4.6,6.8,6.9
			c0.2,0.2,0.4,0.4,0.6,0.5c0.8,0.4,1.9,0.2,2.6-0.5c5.5-5.5,11.1-11.2,16.6-16.7C54.4,21.5,54.4,21.4,54.4,21.4z M54.1,50.6
			c-0.2-0.2-11.8-12.1-11.9-12.2l-0.1,0.1c-0.7,0.7-1.4,1.4-2.1,2.1c-0.1,0.1-0.4,0.4-0.5,0.5c-1.3,0.9-2.7,1.3-4.2,1.1
			C34,42,33,41.4,32.1,40.5c-0.7-0.7-1.4-1.4-2-2.1L30,38.2c-4,4.1-8,8.2-12,12.4C30,50.6,42,50.6,54.1,50.6z M27.5,36
			c-0.1-0.2-11.9-12.1-12-12.1c0,8.1,0,16.2,0,24.5C19.5,44.1,23.5,40,27.5,36z M44.6,36c4,4.1,7.9,8.1,11.9,12.2c0-0.2,0-24,0-24.1
			C52.5,28,48.6,32,44.6,36z"/>
	</g>
</g>
</svg>
