<?xml version="1.0" encoding="utf-8"?>
<!-- Generator: Adobe Illustrator 19.1.0, SVG Export Plug-In . SVG Version: 6.00 Build 0)  -->
<svg version="1.1" id="Layer_1" xmlns="http://www.w3.org/2000/svg" xmlns:xlink="http://www.w3.org/1999/xlink" x="0px" y="0px"
	 viewBox="0 0 72 72" style="enable-background:new 0 0 72 72;" xml:space="preserve">
<style type="text/css">
	.st0{fill:#7A7676;}
	.st1{fill:#FFFFFF;}
</style>
<rect x="-0.1" y="0" class="st0" width="72.1" height="72"/>
<g id="MUODtZ.tif">
	<g>
		<path class="st1" d="M15.7,51.3c0-10.2,0-20.4,0-30.6c13.5,0,27,0,40.5,0c0,10.2,0,20.4,0,30.6C42.7,51.3,29.2,51.3,15.7,51.3z
			 M51.6,23.6C51.6,23.6,51.6,23.6,51.6,23.6c-0.1,0-0.1,0-0.1,0c-10.3,0-20.6,0-30.9,0c0,0,0,0,0,0c0,0,0,0,0,0
			c0.1,0.1,0.1,0.1,0.2,0.2c2.7,2.7,5.4,5.5,8.1,8.2c1.9,2,3.9,3.9,5.8,5.9c0.2,0.2,0.3,0.3,0.5,0.4c0.7,0.3,1.6,0.2,2.2-0.4
			c4.7-4.7,9.4-9.5,14.1-14.2C51.6,23.7,51.6,23.6,51.6,23.6z M51.4,48.4C51.2,48.2,41.4,38.1,41.3,38c0,0-0.1,0.1-0.1,0.1
			c-0.6,0.6-1.2,1.2-1.8,1.8c-0.1,0.1-0.3,0.3-0.4,0.4c-1.1,0.8-2.3,1.1-3.6,0.9c-1.1-0.1-2-0.6-2.7-1.4c-0.6-0.6-1.2-1.2-1.7-1.8
			c0,0-0.1-0.1-0.1-0.1c-3.4,3.5-6.8,7-10.2,10.5C30.9,48.4,41.1,48.4,51.4,48.4z M28.8,36c-0.1-0.2-10.1-10.3-10.2-10.3
			c0,6.9,0,13.8,0,20.8C22,42.9,25.4,39.4,28.8,36z M43.3,36c3.4,3.5,6.7,6.9,10.1,10.4c0-0.2,0-20.4,0-20.5
			C50,29.2,46.7,32.6,43.3,36z"/>
	</g>
</g>
</svg>
