<?xml version="1.0" encoding="utf-8"?>
<!-- Generator: Adobe Illustrator 19.1.0, SVG Export Plug-In . SVG Version: 6.00 Build 0)  -->
<svg version="1.1" id="Layer_1" xmlns="http://www.w3.org/2000/svg" xmlns:xlink="http://www.w3.org/1999/xlink" x="0px" y="0px"
	 viewBox="0 0 72 72" style="enable-background:new 0 0 72 72;" xml:space="preserve">
<style type="text/css">
	.st0{fill:#FFFFFF;}
	.st1{fill:#ED1C24;}
</style>
<rect x="-0.1" y="0" class="st0" width="72.1" height="72"/>
<g id="MUODtZ.tif">
	<g>
		<path class="st1" d="M13.5,53c0-11.3,0-22.6,0-34c15,0,30,0,45,0c0,11.3,0,22.6,0,34C43.5,53,28.5,53,13.5,53z M53.4,22.2
			C53.4,22.2,53.4,22.2,53.4,22.2c-0.1,0-0.1,0-0.1,0c-11.4,0-22.9,0-34.3,0c0,0,0,0,0,0c0,0,0,0,0,0c0.1,0.1,0.1,0.1,0.2,0.2
			c3,3,6,6.1,9,9.1c2.2,2.2,4.3,4.4,6.5,6.5c0.2,0.2,0.4,0.3,0.6,0.4c0.8,0.3,1.8,0.2,2.4-0.4c5.2-5.3,10.4-10.5,15.7-15.8
			C53.3,22.3,53.3,22.2,53.4,22.2z M53.1,49.8C52.9,49.5,42,38.3,41.8,38.3c0,0-0.1,0.1-0.1,0.1c-0.7,0.7-1.3,1.3-2,2
			c-0.1,0.1-0.3,0.3-0.5,0.4c-1.2,0.9-2.5,1.2-4,1c-1.2-0.2-2.2-0.7-3-1.5c-0.6-0.7-1.3-1.3-1.9-2c0,0-0.1-0.1-0.1-0.1
			c-3.8,3.9-7.6,7.7-11.4,11.6C30.3,49.8,41.7,49.8,53.1,49.8z M28,36c-0.1-0.2-11.2-11.4-11.4-11.5c0,7.7,0,15.4,0,23.1
			C20.5,43.7,24.2,39.8,28,36z M44.1,36c3.7,3.8,7.5,7.7,11.2,11.5c0-0.2,0-22.7,0-22.8C51.6,28.5,47.8,32.2,44.1,36z"/>
	</g>
</g>
</svg>
