<?xml version="1.0" encoding="utf-8"?>
<!-- Generator: Adobe Illustrator 19.1.0, SVG Export Plug-In . SVG Version: 6.00 Build 0)  -->
<svg version="1.1" id="Layer_1" xmlns="http://www.w3.org/2000/svg" xmlns:xlink="http://www.w3.org/1999/xlink" x="0px" y="0px"
	 viewBox="0 0 72 72" style="enable-background:new 0 0 72 72;" xml:space="preserve">
<style type="text/css">
	.st0{fill:#FFFFFF;}
	.st1{fill:#EC1C24;}
</style>
<rect x="0.1" y="0.1" class="st0" width="71.9" height="71.9"/>
<path class="st1" d="M18.4,12.3h35.2c3.3,0,6.1,2.7,6.1,6.1v35.2c0,3.3-2.7,6.1-6.1,6.1H18.4c-3.3,0-6.1-2.7-6.1-6.1V18.4
	C12.3,15.1,15.1,12.3,18.4,12.3z M46.8,17.6c-1.2,0-2.1,1-2.1,2.1v5.1c0,1.2,1,2.1,2.1,2.1h5.3c1.2,0,2.1-1,2.1-2.1v-5.1
	c0-1.2-1-2.1-2.1-2.1H46.8z M54.3,32.4h-4.2c0.4,1.3,0.6,2.6,0.6,4.1c0,7.9-6.6,14.3-14.7,14.3s-14.7-6.4-14.7-14.3
	c0-1.4,0.2-2.8,0.6-4.1h-4.3v20c0,1,0.8,1.9,1.9,1.9h33c1,0,1.9-0.8,1.9-1.9L54.3,32.4L54.3,32.4z M36,26.7c-5.2,0-9.5,4.1-9.5,9.2
	s4.3,9.2,9.5,9.2s9.5-4.1,9.5-9.2C45.6,30.8,41.3,26.7,36,26.7z"/>
</svg>
